# xmcd
#
# Track frame offsets: 
#        150
#        11279
#        20422
#        34736
#        45710
#        58925
#        73862
#        87330
#        99739
#        114901
#        125701
#        140357
#        154572
#        167238
#        180491
#        194889
#        207830
#        222725
#        236403
#        252640
#
# Disc length: 3554 seconds
#
# Revision: 1
# Processed by: cddbd v1.5.2PL0 Copyright (c) Steve Scherf et al.
# Submitted via: ExactAudioCopyFreeDBPlugin 1.0
#
DISCID=290de014
DTITLE=Various Artist - Lady Sings The Blues (100 Hits)
DYEAR=2006
DGENRE=Blues
TTITLE0=Annisteen Alan - Baby I'm Doing It
TTITLE1=Gladys Knight and The Pips - Every Beat Of My Heart
TTITLE2=Marlène Dietrich - Falling In Love Again
TTITLE3=Dinah Washington - Fat Daddy
TTITLE4=Ella Fitzgerald - Gulf Coast Blues
TTITLE5=Billie Pierce - I'm In The Racket
TTITLE6=Bessie Smith - Mean Old Bed Bug Blues
TTITLE7=Varetta Dillard - Mercy Mr. Percy
TTITLE8=Esther Phillips - No Headstone On My Grave
TTITLE9=Irma Thomas - Set Me Free
TTITLE10=Sarah Vaughan - Summertime
TTITLE11=Peggy Lee - That's The Way It Goes
TTITLE12=Della Reese - There's Always The Blues
TTITLE13=Billie Holiday - Yesterdays
TTITLE14=Ella Fitzgerald - You're Gonna Lose Your Gal
TTITLE15=Bessie Smith - Standin' In The Rain
TTITLE16=Memphis Minnie - Bumble Bee
TTITLE17=Sarah Vaughan - Time After Time
TTITLE18=Carmen McRae - They Can't Take That Away From Me
TTITLE19=Dinah Washington - Mellow Mama Blues
EXTD=
EXTT0=
EXTT1=
EXTT2=
EXTT3=
EXTT4=
EXTT5=
EXTT6=
EXTT7=
EXTT8=
EXTT9=
EXTT10=
EXTT11=
EXTT12=
EXTT13=
EXTT14=
EXTT15=
EXTT16=
EXTT17=
EXTT18=
EXTT19=
PLAYORDER=
